<?xml version="1.0" encoding="UTF-8" standalone="no"?>
<!DOCTYPE svg PUBLIC "-//W3C//DTD SVG 1.1//EN" "http://www.w3.org/Graphics/SVG/1.1/DTD/svg11.dtd">
<svg width="100%" height="100%" viewBox="0 0 1920 1080" version="1.1" xmlns="http://www.w3.org/2000/svg" xmlns:xlink="http://www.w3.org/1999/xlink" xml:space="preserve" xmlns:serif="http://www.serif.com/" style="fill-rule:evenodd;clip-rule:evenodd;stroke-linecap:round;stroke-linejoin:round;stroke-miterlimit:1.5;">
    <g id="Camada1">
        <g transform="matrix(1.875,0,0,1.875,0,0)">
            <g>
                <g>
                    <g transform="matrix(0.533333,0,0,0.533333,0,0)">
                        <path d="M843.753,559.748C843.753,559.748 876.105,564.7 894.922,597.713C894.922,597.713 902.185,611.908 902.515,641.95L902.185,688.497C902.185,688.497 902.163,692.379 886.91,692.595C871.657,692.811 870.792,692.811 870.792,692.811L796.8,692.919L757.099,692.703C757.099,692.703 745.524,692.703 745.308,683.941C745.091,675.179 745.2,670.311 745.2,670.311L743.765,633.32C743.765,633.32 742.798,614.154 734.025,605.248C725.252,596.342 717.234,592.928 717.411,594.523" style="fill:white;stroke:white;stroke-width:1px;"/>
                    </g>
                    <g transform="matrix(-0.005491,0.722607,-0.601102,-0.004567,675.271731,-363.478003)">
                        <path d="M933.665,437.697L731.403,437.697C731.26,435.106 731.188,432.511 731.188,429.915C731.188,363.823 776.6,310.165 832.534,310.165C888.468,310.165 933.879,363.823 933.879,429.915C933.879,432.511 933.808,435.106 933.665,437.697Z" style="fill:rgb(252,252,252);"/>
                    </g>
                    <g transform="matrix(0.615811,0,0,0.533333,-60.306666,0)">
                        <rect x="731.188" y="305.475" width="32.021" height="289.491" style="fill:rgb(252,252,252);"/>
                    </g>
                    <g transform="matrix(0.533333,0,0,0.533333,0,0)">
                        <rect x="424.188" y="305.353" width="307" height="126.138" style="fill:rgb(252,252,252);"/>
                    </g>
                    <g transform="matrix(0.240785,0,0,0.628841,84.702651,-49.592448)">
                        <path d="M597.573,344.056L597.573,661.066C597.573,664.497 590.298,667.283 581.338,667.283L284.366,667.283C275.405,667.283 268.13,664.497 268.13,661.066L268.13,344.056C268.13,340.625 275.405,337.84 284.366,337.84L581.338,337.84C590.298,337.84 597.573,340.625 597.573,344.056Z" style="fill:rgb(252,252,252);"/>
                    </g>
                    <g transform="matrix(0.533333,0,0,0.533333,0,0)">
                        <rect x="428.605" y="491.694" width="302.584" height="103.272" style="fill:rgb(252,252,252);"/>
                    </g>
                    <g transform="matrix(0.563602,-0,0,1.011913,-22.310031,-236.26695)">
                        <path d="M717.11,492.911C717.11,492.911 741.479,502.26 731.997,477.935C731.997,477.935 732.771,491.578 717.164,492.931" style="fill:rgb(252,252,252);stroke:white;stroke-width:0.65px;"/>
                    </g>
                    <g transform="matrix(-0.018468,-0.888515,0.519681,-0.010802,147.360364,885.493402)">
                        <path d="M717.11,492.911C717.11,492.911 741.479,502.26 731.997,477.935C731.997,477.935 732.771,491.578 717.164,492.931" style="fill:rgb(252,252,252);stroke:white;stroke-width:0.73px;"/>
                    </g>
                </g>
            </g>
            <path d="M666.504,163.036C691.847,162.744 713.389,165.408 717.439,165.908C796.24,175.651 807.407,206.644 811.759,229.461C813.763,239.962 809.37,239.868 808.5,239.85C759.933,238.815 738.084,241.051 735.933,238.169C732.046,232.961 731.71,224.497 704.54,222.003C683.636,220.085 677.733,219.194 626.487,221.187C603.612,222.076 596.595,227.887 594.562,229.571C589.061,234.127 588.328,244.547 619.519,246.135C631.502,246.746 631.444,247.545 670.506,248.193C785.181,250.097 821.35,261.872 819.011,313.493C817.82,339.792 791.379,355.538 787.65,357.759C745.215,383.03 656.445,377.803 623.488,376.831C614.316,376.561 578.908,372.834 557.657,365.04C517.537,350.323 511.332,329.792 507.312,316.563C506.949,315.368 503.34,303.491 506.854,300.948C508.376,299.847 582.58,300.311 583.422,300.699C588.31,302.955 584.591,311.83 605.566,317.215C627.07,322.735 736.133,328.064 739.788,309.583C743.778,289.407 686.996,298.666 600.537,292.154C559.836,289.088 520.31,284.606 513.148,242.559C507.6,209.991 533.95,189.885 537.821,186.932C556.459,172.71 588.987,167.642 590.47,167.333C600.28,165.289 640.57,162.056 666.504,163.036Z" style="fill:rgb(252,252,252);"/>
            <g transform="matrix(0.533333,0,0,0.479471,0,-24.35047)">
                <rect x="1566.333" y="718.137" width="127.664" height="108.673" style="fill:rgb(1,246,195);stroke:black;stroke-opacity:0;stroke-width:1.05px;"/>
            </g>
        </g>
    </g>
</svg>
